<?xml version="1.0" encoding="utf-8"?>
<!-- Generator: Adobe Illustrator 25.2.0, SVG Export Plug-In . SVG Version: 6.00 Build 0)  -->
<svg version="1.1" xmlns="http://www.w3.org/2000/svg" xmlns:xlink="http://www.w3.org/1999/xlink" x="0px" y="0px"
	 viewBox="0 0 16 16" style="enable-background:new 0 0 16 16;" xml:space="preserve">
<style type="text/css">
	.st0{fill-rule:evenodd;clip-rule:evenodd;fill:#FFFFFF;}
</style>
<g id="Слой_2">
</g>
<g id="Слой_1">
	<path class="st0" d="M8.7,1.5c-0.4-0.4-1-0.4-1.4,0L0.6,8.1c-0.2,0.2-0.2,0.5,0,0.7C0.8,9,1.2,9,1.4,8.9L8,2.2l6.6,6.6
		c0.2,0.2,0.5,0.2,0.7,0c0.2-0.2,0.2-0.5,0-0.7L13,5.8V2.5C13,2.2,12.8,2,12.5,2h-1C11.2,2,11,2.2,11,2.5v1.3L8.7,1.5z"/>
	<path class="st0" d="M8,3.3l6,6v4.2c0,0.8-0.7,1.5-1.5,1.5h-9C2.7,15,2,14.3,2,13.5V9.3C2,9.3,8,3.3,8,3.3z M8,8.5
		c1.7-1.7,5.8,1.3,0,5C2.2,9.7,6.3,6.8,8,8.5z"/>
</g>
</svg>
